<svg width="48" height="48" viewBox="0 0 48 48" fill="none" xmlns="http://www.w3.org/2000/svg">
<g filter="url(#filter0_d_201_670)">
<path fill-rule="evenodd" clip-rule="evenodd" d="M24.0003 35.3337C31.3641 35.3337 37.3337 29.3641 37.3337 22.0003C37.3337 14.6365 31.3641 8.66699 24.0003 8.66699C16.6365 8.66699 10.667 14.6365 10.667 22.0003C10.667 29.3641 16.6365 35.3337 24.0003 35.3337Z" fill="white"/>
</g>
<path d="M28.8782 18.7734C28.4912 18.9432 28.0788 19.0557 27.6489 19.1103C28.0912 18.8463 28.4288 18.4313 28.5875 17.9312C28.1751 18.177 27.7198 18.3507 27.2346 18.4476C26.8431 18.0307 26.285 17.7725 25.6762 17.7725C24.4951 17.7725 23.5442 18.7312 23.5442 19.9064C23.5442 20.0756 23.5585 20.2382 23.5936 20.3929C21.82 20.3064 20.2505 19.4564 19.1962 18.1614C19.0122 18.4808 18.9042 18.8463 18.9042 19.2398C18.9042 19.9786 19.2847 20.6336 19.8518 21.0128C19.5091 21.0063 19.1728 20.9068 18.8879 20.75C18.8879 20.7565 18.8879 20.765 18.8879 20.7734C18.8879 21.8102 19.6275 22.6713 20.5972 22.8697C20.4235 22.9172 20.2343 22.9399 20.0379 22.9399C19.9013 22.9399 19.7634 22.9321 19.634 22.9035C19.9104 23.7484 20.6948 24.3695 21.6275 24.3897C20.9016 24.9575 19.98 25.2996 18.9822 25.2996C18.8073 25.2996 18.6395 25.2918 18.4717 25.2703C19.4167 25.8798 20.5367 26.2277 21.7445 26.2277C25.6704 26.2277 27.8167 22.9757 27.8167 20.1569C27.8167 20.0625 27.8135 19.9715 27.8089 19.8811C28.2323 19.5806 28.5881 19.2053 28.8782 18.7734Z" fill="#444444"/>
<defs>
<filter id="filter0_d_201_670" x="0.666992" y="0.666992" width="46.6667" height="46.6666" filterUnits="userSpaceOnUse" color-interpolation-filters="sRGB">
<feFlood flood-opacity="0" result="BackgroundImageFix"/>
<feColorMatrix in="SourceAlpha" type="matrix" values="0 0 0 0 0 0 0 0 0 0 0 0 0 0 0 0 0 0 127 0" result="hardAlpha"/>
<feOffset dy="2"/>
<feGaussianBlur stdDeviation="5"/>
<feColorMatrix type="matrix" values="0 0 0 0 0 0 0 0 0 0 0 0 0 0 0 0 0 0 0.1 0"/>
<feBlend mode="normal" in2="BackgroundImageFix" result="effect1_dropShadow_201_670"/>
<feBlend mode="normal" in="SourceGraphic" in2="effect1_dropShadow_201_670" result="shape"/>
</filter>
</defs>
</svg>
