<svg width="47" height="48" viewBox="0 0 47 48" fill="none" xmlns="http://www.w3.org/2000/svg">
<g filter="url(#filter0_d_201_673)">
<path fill-rule="evenodd" clip-rule="evenodd" d="M23.3333 35.3337C30.6971 35.3337 36.6667 29.3641 36.6667 22.0003C36.6667 14.6365 30.6971 8.66699 23.3333 8.66699C15.9695 8.66699 10 14.6365 10 22.0003C10 29.3641 15.9695 35.3337 23.3333 35.3337Z" fill="white"/>
</g>
<path fill-rule="evenodd" clip-rule="evenodd" d="M25.0296 20.5331C24.8214 20.4672 24.582 20.4233 24.3634 20.4233C24.0928 20.4233 23.5099 20.6099 23.5099 20.9721V21.8392H24.8943V23.299H23.5099V27.3272H22.1152V23.299H21.4282V21.8392H22.1152V21.1038C22.1152 19.9952 22.594 19.0732 23.7493 19.0732C24.1449 19.0732 24.8526 19.0952 25.2377 19.2379L25.0296 20.5331Z" fill="#444444"/>
<defs>
<filter id="filter0_d_201_673" x="0" y="0.666992" width="46.6667" height="46.6666" filterUnits="userSpaceOnUse" color-interpolation-filters="sRGB">
<feFlood flood-opacity="0" result="BackgroundImageFix"/>
<feColorMatrix in="SourceAlpha" type="matrix" values="0 0 0 0 0 0 0 0 0 0 0 0 0 0 0 0 0 0 127 0" result="hardAlpha"/>
<feOffset dy="2"/>
<feGaussianBlur stdDeviation="5"/>
<feColorMatrix type="matrix" values="0 0 0 0 0 0 0 0 0 0 0 0 0 0 0 0 0 0 0.1 0"/>
<feBlend mode="normal" in2="BackgroundImageFix" result="effect1_dropShadow_201_673"/>
<feBlend mode="normal" in="SourceGraphic" in2="effect1_dropShadow_201_673" result="shape"/>
</filter>
</defs>
</svg>
